<svg width="1080" height="1080" viewBox="0 0 1080 1080" fill="none" xmlns="http://www.w3.org/2000/svg">
<path fill-rule="evenodd" clip-rule="evenodd" d="M884.538 379.001L379.001 195L195 700.537L700.537 884.538L884.538 379.001ZM379.587 722H519.502C556.434 722 588.453 714.779 615.56 700.338C642.667 685.778 663.619 664.945 678.416 637.838C693.212 610.613 700.61 578.061 700.61 540.182C700.61 502.303 693.153 469.81 678.238 442.703C663.442 415.478 642.372 394.644 615.028 380.203C587.802 365.643 555.487 358.364 518.082 358.364H379.587V722ZM515.951 638.193H478.309V442.17H513.11C532.05 442.17 548.03 445.071 561.051 450.871C574.19 456.671 584.133 466.673 590.88 480.878C597.746 495.082 601.178 514.85 601.178 540.182C601.178 565.513 597.805 585.281 591.058 599.486C584.429 613.69 574.722 623.693 561.938 629.493C549.273 635.293 533.943 638.193 515.951 638.193Z" fill="white"/>
<path fill-rule="evenodd" clip-rule="evenodd" d="M90.7988 801.975L714.789 1029.09L681.962 958.69L161.198 769.147L90.7988 801.975ZM958.75 397.243L769.207 918.007L802.035 988.406L1029.15 364.415L958.75 397.243ZM988.24 277.275L917.166 310.417L397.723 121.355L364.58 50.2809L988.24 277.275ZM121.415 681.482L50.3415 714.624L277.335 90.9648L310.477 162.039L121.415 681.482Z" fill="#D9D9D9"/>
</svg>